Coordinates
version=1
nRows=22
nColumns=24
inDegrees=yes

Units are S.I. units (second, meters, Newtons, ...)
Angles are in degrees.

endheader
time	pelvis_tilt	pelvis_list	pelvis_rotation	pelvis_tx	pelvis_ty	pelvis_tz	hip_flexion_r	hip_adduction_r	hip_rotation_r	knee_angle_r	ankle_angle_r	subtalar_angle_r	mtp_angle_r	hip_flexion_l	hip_adduction_l	hip_rotation_l	knee_angle_l	ankle_angle_l	subtalar_angle_l	mtp_angle_l	lumbar_extension	lumbar_bending	lumbar_rotation
      4.15000000	    -14.39947451	      6.56229300	     -5.91887453	     -1.06384245	     -0.05726050	      0.47424258	     22.97166479	     -8.29724528	      0.80751690	    -66.66983061	    -29.32380865	      7.19160188	     22.26757680	     37.47061225	      9.37772885	     -2.10070882	    -31.81820065	      4.47525552	     14.65693233	     13.23942861	     16.43327915	     -6.42717340	      8.90883620
      4.15500000	    -14.06403588	      6.67913317	     -5.89407402	     -1.05642736	     -0.05559005	      0.47394743	     23.53087998	     -8.30022092	      1.03378266	    -67.29709275	    -28.34941091	      6.75165514	     22.89212785	     36.29755363	      9.66120913	     -2.06352465	    -31.31926761	      5.03440297	     14.82610607	     12.78911806	     16.12723013	     -6.57473129	      8.78201684
      4.16000000	    -13.95411504	      6.71360918	     -5.76491949	     -1.04910059	     -0.05420227	      0.47353939	     24.32332203	     -8.22807305	      1.10690638	    -67.88881606	    -27.43444153	      6.25030128	     23.28144186	     35.37923239	      9.89596115	     -1.85411116	    -30.83756053	      5.45110751	     14.97580070	     12.73401417	     16.05250144	     -6.64414969	      8.56088405
      4.16500000	    -13.64327024	      6.72324563	     -5.72340565	     -1.04168154	     -0.05248221	      0.47320194	     24.86746160	     -8.10718976	      1.27330851	    -68.33953249	    -26.46784223	      5.98991783	     23.79495240	     34.19545529	     10.09492625	     -1.68816882	    -30.29150713	      5.88461993	     15.05449341	     12.40676725	     15.76371384	     -6.67083626	      8.40919625
      4.17000000	    -13.44897656	      6.70903649	     -5.64537716	     -1.03427344	     -0.05089135	      0.47285256	     25.53247648	     -7.95404796	      1.38232356	    -68.73064042	    -25.60051258	      5.68014392	     24.18374506	     33.12855363	     10.26974230	     -1.44961464	    -29.72653052	      6.24134668	     15.14341993	     12.24422830	     15.60822095	     -6.67393593	      8.20827314
      4.17500000	    -13.19060044	      6.63963679	     -5.59559628	     -1.02684690	     -0.04920251	      0.47248994	     26.10189320	     -7.74092121	      1.48625392	    -69.01924812	    -24.73493102	      5.49024528	     24.57884265	     31.96896762	     10.39557754	     -1.17041135	    -29.13399920	      6.57221552	     15.14555005	     12.05122158	     15.38050892	     -6.61025289	      8.05796126
      4.18000000	    -12.93415744	      6.53603443	     -5.55169785	     -1.01943904	     -0.04751187	      0.47213502	     26.65837164	     -7.48368111	      1.57407711	    -69.22650333	    -23.91959918	      5.33278284	     24.94403356	     30.80143054	     10.48283375	     -0.87213256	    -28.52523248	      6.85994259	     15.10019157	     11.85690197	     15.15272754	     -6.50539337	      7.90140050
      4.18500000	    -12.69015945	      6.40225408	     -5.50286816	     -1.01201734	     -0.04582806	      0.47177764	     27.20421575	     -7.18915843	      1.64307378	    -69.34615481	    -23.14664607	      5.21156871	     25.27634486	     29.63169110	     10.53873660	     -0.53740319	    -27.89523935	      7.11228696	     15.03347512	     11.67837144	     14.93770485	     -6.36792437	      7.73600547
      4.19000000	    -12.44365527	      6.24120013	     -5.45190551	     -1.00460998	     -0.04415465	      0.47141838	     27.72762987	     -6.86450086	      1.69254603	    -69.38539811	    -22.40694042	      5.12486376	     25.58292249	     28.44882942	     10.56547131	     -0.17896911	    -27.24770389	      7.33011627	     14.93228906	     11.49874700	     14.71708700	     -6.20223701	      7.56209065
      4.19500000	    -12.20297941	      6.05755074	     -5.39436784	     -0.99722345	     -0.04251155	      0.47106189	     28.23817739	     -6.51632198	      1.71831143	    -69.34761581	    -21.69747344	      5.06184860	     25.86059220	     27.26527620	     10.56600376	      0.20258112	    -26.58694334	      7.52095106	     14.80812863	     11.32150335	     14.49834795	     -6.01390108	      7.38243957
      4.20000000	    -11.96769584	      5.84862133	     -5.32818289	     -0.98983854	     -0.04089501	      0.47069900	     28.73069336	     -6.14544475	      1.71877811	    -69.22838213	    -21.01803457	      5.02802981	     26.10703531	     26.07721199	     10.53789908	      0.60841560	    -25.91064536	      7.68581501	     14.66612867	     11.14182799	     14.28490971	     -5.80393630	      7.19195734
      4.20500000	    -11.73302260	      5.62651548	     -5.25042958	     -0.98247949	     -0.03932486	      0.47032959	     29.20398220	     -5.76508495	      1.69794627	    -69.03660037	    -20.35404792	      5.00928664	     26.32345185	     24.88602318	     10.49396311	      1.03106945	    -25.22441580	      7.83313958	     14.50558381	     10.95696663	     14.06604023	     -5.58146240	      6.98887220
      4.21000000	    -11.49911700	      5.39081698	     -5.16057045	     -0.97514571	     -0.03780331	      0.46995315	     29.65848158	     -5.37841336	      1.65337561	    -68.77226729	    -19.70596619	      5.00651734	     26.50460317	     23.69236834	     10.43190495	      1.46727546	    -24.52905872	      7.96362587	     14.33135682	     10.76443530	     13.84181794	     -5.35109618	      6.76879427
      4.21500000	    -11.25317073	      5.15808364	     -5.05953278	     -0.96786522	     -0.03635377	      0.46957318	     30.08790261	     -5.00518273	      1.58878496	    -68.44788189	    -19.05214636	      5.00437372	     26.64657834	     22.48807693	     10.37076409	      1.91848973	    -23.82894257	      8.09534321	     14.13282651	     10.56369827	     13.59356207	     -5.13053763	      6.53002332
      4.22000000	    -11.05572997	      4.89036362	     -4.93937342	     -0.96056305	     -0.03494420	      0.46920213	     30.53477115	     -4.59647858	      1.49818714	    -68.03065804	    -18.45519299	      5.02925926	     26.73359563	     21.33027056	     10.25575978	      2.36214555	    -23.12262097	      8.19544597	     13.97874078	     10.36628093	     13.40617653	     -4.87500302	      6.29561629
      4.22500000	    -10.82158617	      4.64192167	     -4.80639258	     -0.95333065	     -0.03362581	      0.46882070	     30.93665244	     -4.22541881	      1.39093154	    -67.56999332	    -17.82140693	      5.03883715	     26.77339640	     20.13709327	     10.16230121	      2.82417154	    -22.41116774	      8.31933811	     13.79367872	     10.14955123	     13.16184959	     -4.65071584	      6.02402624
      4.23000000	    -10.61810210	      4.38351704	     -4.66068343	     -0.94609406	     -0.03237209	      0.46842858	     31.34635228	     -3.85221391	      1.26532882	    -67.03056736	    -17.22023610	      5.05748378	     26.75081831	     18.97780716	     10.04332198	      3.26868533	    -21.69788140	      8.43239683	     13.64567488	      9.93014345	     12.95478304	     -4.41484998	      5.75659608
      4.23500000	    -10.41979418	      4.12402873	     -4.50168030	     -0.93890674	     -0.03119547	      0.46805950	     31.74517054	     -3.48651365	      1.12217025	    -66.42760866	    -16.62794876	      5.07414427	     26.67267299	     17.83251218	      9.91025743	      3.70271554	    -20.99082346	      8.55332178	     13.52144025	      9.70292094	     12.74503967	     -4.18925590	      5.46857061
      4.24000000	    -10.21965585	      3.88067068	     -4.33095310	     -0.93172802	     -0.03008870	      0.46769156	     32.12493980	     -3.15227735	      0.96431036	    -65.76502196	    -16.03456943	      5.08074027	     26.50857283	     16.68542485	      9.78332629	      4.13278656	    -20.27778261	      8.68088577	     13.42535832	      9.44893286	     12.53510462	     -3.98535833	      5.20870146
      4.24500000	    -10.04657636	      3.62475214	     -4.14742903	     -0.92459407	     -0.02907626	      0.46731515	     32.51337070	     -2.81060749	      0.80042881	    -65.03239538	    -15.47383202	      5.09076567	     26.32117627	     15.58348545	      9.62670114	      4.51286913	    -19.58177242	      8.82730271	     13.37134331	      9.21633188	     12.34554281	     -3.77034069	      4.87428199
      4.25000000	     -9.86013480	      3.38330925	     -3.96174288	     -0.91745799	     -0.02811629	      0.46695981	     32.86759717	     -2.49443695	      0.63087526	    -64.23707718	    -14.91931506	      5.08618110	     26.06208077	     14.46476760	      9.47237697	      4.88104511	    -18.87424675	      8.97067407	     13.33740382	      8.97069277	     12.14173391	     -3.57418030	      4.56494132
      4.25500000	     -9.67178745	      3.15694309	     -3.77490790	     -0.91033577	     -0.02723152	      0.46661216	     33.20198165	     -2.20183705	      0.46186749	    -63.38205581	    -14.36940167	      5.07132447	     25.73124554	     13.34691815	      9.32053397	      5.22591321	    -18.16018956	      9.11532316	     13.32623421	      8.73540213	     11.93571213	     -3.39811663	      4.25912929
